<?xml version="1.0" encoding="UTF-8"?>
<svg id="Layer_1" data-name="Layer 1" xmlns="http://www.w3.org/2000/svg" xmlns:xlink="http://www.w3.org/1999/xlink" viewBox="0 0 909.76 140.33">
  <defs>
    <style>
      .cls-1 {
        fill: #00bf63;
        fill-rule: evenodd;
      }

      .cls-2 {
        fill: none;
      }

      .cls-3 {
        clip-path: url(#clippath);
      }
    </style>
    <clipPath id="clippath">
      <rect class="cls-2" x="682.27" width="118.33" height="137.77"/>
    </clipPath>
  </defs>
  <g>
    <path d="M24.1,137.77H3.19c-2.13,0-3.19-1.06-3.19-3.19V21.54c0-2.13,1.06-3.19,3.19-3.19h44.54c8.34,0,15.33,1,20.96,3s10.11,4.77,13.48,8.29c3.38,3.52,5.8,7.65,7.27,12.4,1.48,4.74,2.23,9.88,2.23,15.42,0,8.5-1.54,15.77-4.6,21.81-3.06,6.04-7.49,10.67-13.29,13.88-5.81,3.21-12.85,4.81-21.15,4.81h-25.33v36.63c0,2.13-1.06,3.19-3.19,3.19ZM27.29,41.83v32.67h16.17c1.19,0,2.67-.05,4.44-.15,1.76-.11,3.61-.42,5.54-.94,1.94-.53,3.76-1.39,5.44-2.58,1.69-1.19,3.07-2.85,4.13-4.98,1.07-2.13,1.6-4.84,1.6-8.15s-.49-5.74-1.48-7.73c-.99-2-2.27-3.55-3.85-4.67-1.57-1.13-3.31-1.93-5.21-2.42-1.89-.5-3.76-.8-5.6-.9-1.83-.11-3.5-.17-5-.17h-16.17Z"/>
    <path d="M172.2,137.77h-59.79c-2.13,0-3.19-1.06-3.19-3.19V21.54c0-2.13,1.06-3.19,3.19-3.19h20.75c2.13,0,3.19,1.06,3.19,3.19v92.75h35.85c2.13,0,3.19,1.06,3.19,3.19v17.1c0,2.13-1.06,3.19-3.19,3.19Z"/>
    <path d="M241.91,18.35l53.25,115.6c.47,1.14.48,2.06.04,2.77-.43.7-1.24,1.04-2.44,1.04h-22.94c-1.82,0-3.04-.82-3.65-2.48l-5.29-13.23h-45.88l-5.27,13.23c-.63,1.66-1.85,2.48-3.67,2.48h-22.94c-1.14,0-1.95-.34-2.42-1.04-.46-.71-.43-1.63.08-2.77l53.25-115.6c1.04-2.28,2.34-3.42,3.9-3.42s2.88,1.14,3.96,3.42ZM237.95,64.39l-14.6,36.75h29.29l-14.69-36.75Z"/>
    <path d="M332.88,137.77h-19.98c-2.13,0-3.19-1.06-3.19-3.19V21.08c0-2.75.76-4.5,2.29-5.25,1.53-.75,3.35-.11,5.48,1.92l67.48,67.23V21.54c0-2.13,1.06-3.19,3.19-3.19h19.98c2.13,0,3.19,1.06,3.19,3.19v113.44c0,1.81-.39,3.19-1.17,4.15-.78.96-1.81,1.34-3.08,1.17-1.27-.18-2.68-1.02-4.23-2.52l-66.85-68.17v64.98c0,2.13-1.04,3.19-3.1,3.19Z"/>
    <path d="M478.32,137.77h-21c-2.13,0-3.19-1.06-3.19-3.19V41.83h-24.88c-2.13,0-3.19-1.06-3.19-3.19v-17.1c0-2.13,1.06-3.19,3.19-3.19h77.13c2.13,0,3.19,1.06,3.19,3.19v17.1c0,2.13-1.06,3.19-3.19,3.19h-24.88v92.75c0,2.13-1.06,3.19-3.19,3.19Z"/>
    <path d="M596.87,93.77l21.52,40.19c.57,1.14.63,2.06.19,2.77-.43.7-1.24,1.04-2.44,1.04h-23.79c-1.66,0-2.87-.8-3.65-2.42l-18.9-37.4h-18.19v36.63c0,2.13-1.06,3.19-3.19,3.19h-20.92c-2.13,0-3.19-1.06-3.19-3.19V21.54c0-2.13,1.06-3.19,3.19-3.19h44.54c8.34,0,15.33,1,20.96,3s10.11,4.77,13.48,8.29c3.38,3.52,5.8,7.65,7.27,12.4,1.48,4.74,2.23,9.88,2.23,15.42,0,8.77-1.65,16.24-4.94,22.44-3.29,6.2-8.02,10.82-14.19,13.88ZM567.79,41.83h-16.17v32.67h16.17c1.19,0,2.67-.05,4.44-.15,1.76-.11,3.61-.42,5.54-.94,1.94-.53,3.76-1.39,5.44-2.58,1.69-1.19,3.07-2.85,4.13-4.98,1.07-2.13,1.6-4.84,1.6-8.15s-.49-5.74-1.48-7.73c-.99-2-2.27-3.55-3.85-4.67-1.57-1.13-3.31-1.93-5.21-2.42-1.89-.5-3.76-.8-5.6-.9-1.83-.11-3.5-.17-5-.17Z"/>
    <path d="M661.68,137.77h-20.75c-2.13,0-3.19-1.06-3.19-3.19V21.54c0-2.13,1.06-3.19,3.19-3.19h20.75c2.13,0,3.19,1.06,3.19,3.19v113.04c0,2.13-1.06,3.19-3.19,3.19Z"/>
  </g>
  <path d="M851.99,105.11h54.67c2.07,0,3.1,1.06,3.1,3.19v17.1c0,2.13-1.04,3.19-3.1,3.19h-95.85c-1.31,0-2.17-.39-2.58-1.17-.41-.78-.3-1.66.31-2.65l55.04-92.13h-46.25c-2.13,0-3.19-1.06-3.19-3.19V12.36c0-2.13,1.06-3.19,3.19-3.19h87.6c1.3,0,2.16.39,2.56,1.15.42.75.32,1.64-.29,2.67l-55.21,92.13Z"/>
  <g class="cls-3">
    <path class="cls-1" d="M738.96,1.48l-27.28,15.75-27.28,15.75-2.5,1.43v5.68l2.5,1.44,29.76,17.18,27.28-15.75,22.28,12.88v25.79l-22.28,12.88-27.28-15.75-9.92,5.74c-7.45,4.31-14.89,8.61-22.34,12.91v5.67l2.5,1.44,27.28,15.75,27.28,15.75,2.47,1.44,2.47-1.44,7.45-4.3-13.64-7.87c-13.64-7.87-27.28-15.75-40.9-23.62l17.36-10.01,44.62,25.82,3.72,2.13,6.19,3.57,2.47-1.43,27.28-15.72,2.5-1.47V34.43l-2.5-1.44-27.28-15.75-2.47-1.44-2.47,1.44-52.07,30.06-17.36-10.01,19.83-11.44,14.74-8.57,10.04-5.8,9.91-5.74-7.45-4.27-2.47-1.44-2.47,1.44ZM751.35,100.26l22.34-12.91v-37.17l-22.34-12.91,17.37-10.01,22.28,12.88v57.25l-22.28,12.88-17.37-10.01Z"/>
  </g>
</svg>