<?xml version="1.0" encoding="UTF-8"?>
<svg id="Layer_1" data-name="Layer 1" xmlns="http://www.w3.org/2000/svg" xmlns:xlink="http://www.w3.org/1999/xlink" viewBox="0 0 930.76 159">
  <defs>
    <style>
      .cls-1 {
        fill: #00bf63;
        fill-rule: evenodd;
      }

      .cls-2 {
        fill: none;
      }

      .cls-3 {
        clip-path: url(#clippath);
      }
    </style>
    <clipPath id="clippath">
      <rect class="cls-2" x="682.27" width="136.56" height="159"/>
    </clipPath>
  </defs>
  <g>
    <path d="M24.1,156.44H3.19c-2.13,0-3.19-1.06-3.19-3.19V40.21c0-2.13,1.06-3.19,3.19-3.19h44.54c8.34,0,15.33,1,20.96,3s10.11,4.77,13.48,8.29c3.38,3.52,5.8,7.65,7.27,12.4,1.48,4.74,2.23,9.88,2.23,15.42,0,8.5-1.54,15.77-4.6,21.81-3.06,6.04-7.49,10.67-13.29,13.88-5.81,3.21-12.85,4.81-21.15,4.81h-25.33v36.63c0,2.13-1.06,3.19-3.19,3.19ZM27.29,60.5v32.67h16.17c1.19,0,2.67-.05,4.44-.15,1.76-.11,3.61-.42,5.54-.94,1.94-.53,3.76-1.39,5.44-2.58,1.69-1.19,3.07-2.85,4.13-4.98,1.07-2.13,1.6-4.84,1.6-8.15s-.49-5.74-1.48-7.73c-.99-2-2.27-3.55-3.85-4.67-1.57-1.13-3.31-1.93-5.21-2.42-1.89-.5-3.76-.8-5.6-.9-1.83-.11-3.5-.17-5-.17h-16.17Z"/>
    <path d="M172.2,156.44h-59.79c-2.13,0-3.19-1.06-3.19-3.19V40.21c0-2.13,1.06-3.19,3.19-3.19h20.75c2.13,0,3.19,1.06,3.19,3.19v92.75h35.85c2.13,0,3.19,1.06,3.19,3.19v17.1c0,2.13-1.06,3.19-3.19,3.19Z"/>
    <path d="M241.91,37.02l53.25,115.6c.47,1.14.48,2.06.04,2.77-.43.7-1.24,1.04-2.44,1.04h-22.94c-1.82,0-3.04-.82-3.65-2.48l-5.29-13.23h-45.88l-5.27,13.23c-.63,1.66-1.85,2.48-3.67,2.48h-22.94c-1.14,0-1.95-.34-2.42-1.04-.46-.71-.43-1.63.08-2.77l53.25-115.6c1.04-2.28,2.34-3.42,3.9-3.42s2.88,1.14,3.96,3.42ZM237.95,83.06l-14.6,36.75h29.29l-14.69-36.75Z"/>
    <path d="M332.88,156.44h-19.98c-2.13,0-3.19-1.06-3.19-3.19V39.75c0-2.75.76-4.5,2.29-5.25,1.53-.75,3.35-.11,5.48,1.92l67.48,67.23v-63.44c0-2.13,1.06-3.19,3.19-3.19h19.98c2.13,0,3.19,1.06,3.19,3.19v113.44c0,1.81-.39,3.19-1.17,4.15-.78.96-1.81,1.34-3.08,1.17-1.27-.18-2.68-1.02-4.23-2.52l-66.85-68.17v64.98c0,2.13-1.04,3.19-3.1,3.19Z"/>
    <path d="M478.32,156.44h-21c-2.13,0-3.19-1.06-3.19-3.19V60.5h-24.88c-2.13,0-3.19-1.06-3.19-3.19v-17.1c0-2.13,1.06-3.19,3.19-3.19h77.13c2.13,0,3.19,1.06,3.19,3.19v17.1c0,2.13-1.06,3.19-3.19,3.19h-24.88v92.75c0,2.13-1.06,3.19-3.19,3.19Z"/>
    <path d="M596.87,112.44l21.52,40.19c.57,1.14.63,2.06.19,2.77-.43.7-1.24,1.04-2.44,1.04h-23.79c-1.66,0-2.87-.8-3.65-2.42l-18.9-37.4h-18.19v36.63c0,2.13-1.06,3.19-3.19,3.19h-20.92c-2.13,0-3.19-1.06-3.19-3.19V40.21c0-2.13,1.06-3.19,3.19-3.19h44.54c8.34,0,15.33,1,20.96,3s10.11,4.77,13.48,8.29c3.38,3.52,5.8,7.65,7.27,12.4,1.48,4.74,2.23,9.88,2.23,15.42,0,8.77-1.65,16.24-4.94,22.44-3.29,6.2-8.02,10.82-14.19,13.88ZM567.79,60.5h-16.17v32.67h16.17c1.19,0,2.67-.05,4.44-.15,1.76-.11,3.61-.42,5.54-.94,1.94-.53,3.76-1.39,5.44-2.58,1.69-1.19,3.07-2.85,4.13-4.98,1.07-2.13,1.6-4.84,1.6-8.15s-.49-5.74-1.48-7.73c-.99-2-2.27-3.55-3.85-4.67-1.57-1.13-3.31-1.93-5.21-2.42-1.89-.5-3.76-.8-5.6-.9-1.83-.11-3.5-.17-5-.17Z"/>
    <path d="M661.68,156.44h-20.75c-2.13,0-3.19-1.06-3.19-3.19V40.21c0-2.13,1.06-3.19,3.19-3.19h20.75c2.13,0,3.19,1.06,3.19,3.19v113.04c0,2.13-1.06,3.19-3.19,3.19Z"/>
  </g>
  <path d="M872.99,114.79h54.67c2.07,0,3.1,1.06,3.1,3.19v17.1c0,2.13-1.04,3.19-3.1,3.19h-95.85c-1.31,0-2.17-.39-2.58-1.17-.41-.78-.3-1.66.31-2.65l55.04-92.13h-46.25c-2.13,0-3.19-1.06-3.19-3.19v-17.1c0-2.13,1.06-3.19,3.19-3.19h87.6c1.3,0,2.16.39,2.56,1.15.42.75.32,1.64-.29,2.67l-55.21,92.13Z"/>
  <g class="cls-3">
    <path class="cls-1" d="M747.7,1.7l-31.49,18.17-31.49,18.18-2.89,1.65v6.55l2.89,1.66,34.34,19.83,31.49-18.18,25.71,14.86v29.76l-25.71,14.86-31.49-18.17-11.45,6.62c-8.59,4.97-17.19,9.93-25.78,14.9v6.55l2.89,1.66,31.49,18.18,31.49,18.17,2.85,1.66,2.85-1.66,8.59-4.96-15.74-9.09c-15.74-9.09-31.49-18.17-47.2-27.26l20.04-11.55,51.5,29.8,4.3,2.46,7.15,4.12,2.85-1.65,31.49-18.14,2.89-1.69V39.74l-2.89-1.66-31.49-18.17-2.85-1.66-2.85,1.66-60.09,34.69-20.04-11.55,22.89-13.21,17.02-9.9,11.59-6.69,11.44-6.63-8.59-4.93-2.85-1.66-2.85,1.66ZM762,115.71l25.79-14.9v-42.9l-25.79-14.9,20.04-11.55,25.71,14.86v66.08l-25.71,14.86-20.04-11.55Z"/>
  </g>
</svg>